<svg xmlns="http://www.w3.org/2000/svg" viewBox="0 0 24 24" fill="currentColor"><path d="M12.001 2.25A2.25 2.25 0 0 0 9.75 4.5v1.342a11.232 11.232 0 0 0-4.137 3.166A2.25 2.25 0 0 0 4.5 10.5v3.132a2.25 2.25 0 0 0 1.114 1.949 11.232 11.232 0 0 0 4.137 3.166V21a2.25 2.25 0 0 0 4.5 0v-2.253a11.232 11.232 0 0 0 4.137-3.166A2.25 2.25 0 0 0 19.5 13.632V10.5a2.25 2.25 0 0 0-1.114-1.95A11.232 11.232 0 0 0 14.25 5.842V4.5A2.25 2.25 0 0 0 12.001 2.25Zm0 2.5a.75.75 0 0 1 .75.75v1.416a.75.75 0 0 1-.345.648A9.732 9.732 0 0 0 7.75 13.084a.75.75 0 0 1-.648.345H5.684a.75.75 0 0 1-.75-.75v-2.266a.75.75 0 0 1 .374-.653 9.732 9.732 0 0 0 5.48-5.48A.75.75 0 0 1 11.25 4.75h.751Zm0 14.5a.75.75 0 0 1-.75-.75v-1.416a.75.75 0 0 1 .345-.648 9.732 9.732 0 0 0 4.656-5.48.75.75 0 0 1 .648-.345h1.416a.75.75 0 0 1 .75.75v2.266a.75.75 0 0 1-.374.653 9.732 9.732 0 0 0-5.48 5.48A.75.75 0 0 1 12.75 19.25H12Z" /></svg>