<svg xmlns="http://www.w3.org/2000/svg" viewBox="0 0 24 24" fill="currentColor"><path d="m11.645 20.91-.007-.003-.022-.012a15.247 15.247 0 0 1-1.344-.688 11.855 11.855 0 0 1-2.158-1.688 11.47 11.47 0 0 1-2.448-2.617c-.31-.383-.6-1.043-.898-1.85A10.232 10.232 0 0 1 4 9.613c0-3.867 3.133-7 7-7s7 3.133 7 7c0 1.57-.52 3.023-1.385 4.212-.345.523-.717 1.05-1.125 1.55a11.458 11.458 0 0 1-2.447 2.617 11.86 11.86 0 0 1-2.158 1.688 15.247 15.247 0 0 1-1.344.688l-.022.012-.007.003-.002.001a.752.752 0 0 1-.67-.001l-.002-.001Z" /></svg>