<svg xmlns="http://www.w3.org/2000/svg" viewBox="0 0 24 24" fill="currentColor"><path d="M13.5 4.06c0-1.336-1.616-2.005-2.56-1.06l-4.5 4.5H4.508c-1.141 0-2.318.664-2.66 1.905A9.76 9.76 0 0 0 1.5 12c0 .898.121 1.768.348 2.595.341 1.24 1.518 1.905 2.66 1.905H6.44l4.5 4.5c.945.945 2.561.276 2.561-1.06V4.06ZM18.584 12.828a1.5 1.5 0 0 0 0-2.121 5.25 5.25 0 0 0-7.424 0 1.5 1.5 0 0 0 2.121 2.121 2.25 2.25 0 0 1 3.182 0 1.5 1.5 0 0 0 2.121 0ZM16.463 7.537a1.5 1.5 0 0 0-2.121 0 8.25 8.25 0 0 0 0 11.667 1.5 1.5 0 0 0 2.121-2.121A5.25 5.25 0 0 1 16.463 7.537Z" /></svg>