<svg xmlns="http://www.w3.org/2000/svg" viewBox="0 0 20 20" fill="currentColor" class="w-5 h-5">
  <path d="m9.653 16.915-.005-.003-.019-.01a20.759 20.759 0 0 1-1.162-.682 22.045 22.045 0 0 1-2.582-1.9-22.247 22.247 0 0 1-2.649-2.311A22.842 22.842 0 0 1 1 8.332V7.5a4.5 4.5 0 0 1 4.5-4.5c1.336 0 2.591.57 3.5 1.5a4.493 4.493 0 0 1 3.5-1.5c2.485 0 4.5 2.015 4.5 4.5v.832c0 1.657-.433 3.22-1.21 4.644a22.843 22.843 0 0 1-2.65 2.311 22.049 22.049 0 0 1-2.582 1.9 20.753 20.753 0 0 1-1.162.682l-.019.01-.005.003h-.002a.739.739 0 0 1-.69.001l.002-.001Z" />
</svg>