<svg xmlns="http://www.w.org/2000/svg" viewBox="0 0 20 20" fill="currentColor" class="w-5 h-5">
  <path fill-rule="evenodd" d="M10.868 2.884c.321-.662 1.215-.662 1.536 0l1.681 3.462a1 1 0 0 0 .951.692h3.632c.712 0 1.008.972.472 1.45l-2.938 2.14a1 1 0 0 0-.364 1.118l1.105 3.794c.23 1.052-.724 1.89-1.628 1.33l-3.236-2.24a1 1 0 0 0-1.182 0l-3.236 2.24c-.904.56-1.858-.278-1.628-1.33l1.105-3.794a1 1 0 0 0-.364-1.118L2.632 8.488c-.536-.478-.24-1.45.472-1.45h3.632a1 1 0 0 0 .951-.692l1.681-3.462Z" clip-rule="evenodd" />
</svg>